# AST/ASF file generated using VICON BodyLanguage
# -----------------------------------------------
:version 1.10
:name VICON
:units
  mass 1.0
  length 0.45
  angle deg
:documentation
   .ast/.asf automatically generated from VICON data using
   VICON BodyBuilder and BodyLanguage model FoxedUp or BRILLIANT.MOD
:root
   order TX TY TZ RX RY RZ
   axis XYZ
   position 0 0 0  
   orientation 0 0 0 
:bonedata
  begin
     id 1 
     name lhipjoint
     direction 0.63403 -0.759788 0.143974 
     length 2.51904 
     axis 0 0 0  XYZ
  end
  begin
     id 2 
     name lfemur
     direction 0.34202 -0.939693 0  
     length 7.42313  
     axis 0 0 20  XYZ
    dof rx ry rz
    limits (-160.0 20.0)
           (-70.0 70.0)
           (-60.0 70.0)
  end
  begin
     id 3 
     name ltibia
     direction 0.34202 -0.939693 0   
     length 8.10141   
     axis 0 0 20   XYZ
    dof rx
    limits (-10.0 170.0)
  end
  begin
     id 4 
     name lfoot
     direction 0.0927455 -0.254816 0.962532   
     length 2.14078   
     axis -90 7.62852e-016 20   XYZ
    dof rx rz
    limits (-45.0 90.0)
           (-70.0 20.0)
  end
  begin
     id 5 
     name ltoes
     direction 1.53556e-011 -4.21949e-011 1   
     length 1.07182   
     axis -90 7.62852e-016 20   XYZ
    dof rx
    limits (-90.0 20.0)
  end
  begin
     id 6 
     name rhipjoint
     direction -0.659892 -0.738223 0.139888   
     length 2.59263  
     axis 0 0 0  XYZ 
  end
  begin
     id 7 
     name rfemur
     direction -0.34202 -0.939693 0   
     length 7.58575   
     axis 0 0 -20   XYZ
    dof rx ry rz
    limits (-160.0 20.0)
           (-70.0 70.0)
           (-70.0 60.0)
  end
  begin
     id 8 
     name rtibia
     direction -0.34202 -0.939693 0   
     length 8.19358   
     axis 0 0 -20   XYZ
    dof rx
    limits (-10.0 170.0)
 end
 begin
     id 9 
     name rfoot
     direction -0.0856543 -0.235333 0.968133   
     length 2.13415  
     axis -90 -7.62852e-016 -20   XYZ
    dof rx rz
    limits (-45.0 90.0)
           (-20.0 70.0)
  end
  begin
     id 10 
     name rtoes
     direction -1.53551e-011 -4.21811e-011 1   
     length 1.07055   
     axis -90 -7.62852e-016 -20   XYZ
    dof rx
    limits (-90.0 20.0)
  end
  begin
     id 11 
     name lowerback
     direction 0.025219 0.998394 -0.0507326   
     length 1.91844   
     axis 0 0 0   XYZ
    dof rx ry rz
    limits (-20.0 45.0)
           (-30.0 30.0)
           (-30.0 30.0)
  end
  begin
     id 12 
     name upperback
     direction 0.0213103 0.99967 -0.0143101   
     length 1.92246   
     axis 0 0 0   XYZ
    dof rx ry rz
    limits (-20.0 45.0)
           (-30.0 30.0)
           (-30.0 30.0)
  end
  begin
     id 13 
     name thorax
     direction 0.00920974 0.99991 0.00971518   
     length 1.92239   
     axis 0 0 0   XYZ
    dof rx ry rz
    limits (-20.0 45.0)
           (-30.0 30.0)
           (-30.0 30.0)
  end
  begin
     id 14 
     name lowerneck
     direction 0.0598257 0.997249 0.0437612   
     length 3.13679   
     axis 0 0 0   XYZ
    dof rx ry rz
    limits (-20.0 45.0)
           (-30.0 30.0)
           (-30.0 30.0)
  end
  begin
     id 15 
     name upperneck
     direction -0.035342 0.999338 0.00863891   
     length 3.16283   
     axis 0 0 0   XYZ
    dof rx ry rz
    limits (-20.0 45.0)
           (-30.0 30.0)
           (-30.0 30.0)
  end
  begin
     id 16
     name head
     direction 0.37144 0.811566 0.450991  
     length 1.2838  
     axis 0 0 0   XYZ
    dof rx ry rz
    limits (-20.0 45.0)
           (-30.0 30.0)
           (-30.0 30.0)
  end
  begin
     id 17 
     name lclavicle
     direction 0.961094 0.274654 -0.0293862  
     length 3.63466  
     axis 0 0 0   XYZ
    dof ry rz
    limits (-20.0 10.0)
           (0.0 20.0)
  end
  begin
     id 18 
     name lhumerus
     direction 1 -4.48963e-011 1.10303e-027   
     length 5.12842   
     axis 180 -30 -90   XYZ
    dof rx ry rz
    limits (-60.0 90.0)
           (-90.0 90.0)
           (-90.0 90.0)
  end
  begin
     id 19
     name lradius
     direction 1 -4.48968e-011 4.13199e-027   
     length 3.47396   
     axis 180 -30 -90   XYZ
    dof rx
    limits (-10.0 170.0)
  end
  begin
     id 20
     name lwrist
     direction 1 -4.48948e-011 9.12708e-027   
     length 1.73698   
     axis -6.84618e-015 90 90   XYZ
    dof ry
    limits (-180.0 0.0)
 end
  begin
     id 21 
     name lhand
     direction 1 -4.49057e-011 1.82749e-026   
     length 0.728607   
     axis -1.16502e-014 90 90   XYZ
    dof rx rz
    limits (-90.0 90.0)
           (-45.0 45.0)
  end
  begin
     id 22 
     name lfingers
     direction 1 -4.48912e-011 3.64949e-026   
     length 0.587422   
     axis -2.33008e-014 90 90   XYZ
    dof rx
    limits (0.0 90.0)
  end
  begin
     id 23
     name lthumb
     direction 0.707107 -6.34995e-011 0.707107   
     length 0.843424   
     axis -90 45 5.69224e-014   XYZ
    dof rx rz
    limits (-45.0 45.0)
           (-45.0 45.0)
  end
  begin
     id 24 
     name rclavicle
     direction -0.90514 0.421881 -0.0523369   
     length 3.57139  
     axis 0 0 0   XYZ 
    dof ry rz
    limits (-10.0 20.0)
           (-20.0 0.0)
  end
  begin
     id 25 
     name rhumerus
     direction -1 -4.48954e-011 -1.76662e-027  
     length 5.48477   
     axis 180 30 90   XYZ
    dof rx ry rz
    limits (-90.0 60.0)
           (-90.0 90.0)
           (-90.0 90.0)
  end
  begin
     id 26 
     name rradius
     direction -1 -4.48982e-011 1.26841e-027   
     length 3.47856   
     axis 180 30 90   XYZ
    dof rx
    limits (-10.0 170.0)
  end
  begin
     id 27 
     name rwrist
     direction -1 -4.49037e-011 9.13554e-027   
     length 1.73928   
     axis -6.84618e-015 -90 -90   XYZ
    dof ry
    limits (-180.0 0.0)
  end
  begin
     id 28
     name rhand
     direction -1 -4.48871e-011 1.82397e-026   
     length 0.709974   
     axis -1.16502e-014 -90 -90   XYZ
    dof rx rz
    limits (-90.0 90.0)
           (-45.0 45.0)
  end
  begin
     id 29
     name rfingers
     direction -1 -4.48994e-011 3.65258e-026   
     length 0.572399   
     axis -2.33008e-014 -90 -90   XYZ
    dof rx
    limits (0.0 90.0)
  end
  begin
     id 30
     name rthumb
     direction -0.707107 -6.34861e-011 0.707107   
     length 0.821855   
     axis -90 -45 -5.69224e-014   XYZ
    dof rx rz
    limits (-45.0 45.0)
           (-45.0 45.0)
  end
:hierarchy
  begin
    root lhipjoint rhipjoint lowerback
    lhipjoint lfemur
    lfemur ltibia
    ltibia lfoot
    lfoot ltoes
    rhipjoint rfemur
    rfemur rtibia
    rtibia rfoot
    rfoot rtoes
    lowerback upperback
    upperback thorax
    thorax lowerneck lclavicle rclavicle
    lowerneck upperneck
    upperneck head
    lclavicle lhumerus
    lhumerus lradius
    lradius lwrist
    lwrist lhand lthumb
    lhand lfingers
    rclavicle rhumerus
    rhumerus rradius
    rradius rwrist
    rwrist rhand rthumb
    rhand rfingers
  end

#!OML:ASF F:\VICON\USERDATA\INSTALL\Justin1\Justin1.ASF
:FULLY-SPECIFIED
:DEGREES
549
root -12.2249 18.1166 12.544 0.966304 -6.33435 -2.65217
lowerback 8.41497 -1.92549 0.0427992
upperback 1.68582 -2.40127 5.16289
thorax -2.74509 -1.19312 5.61272
lowerneck -2.63055 -15.1391 -9.82549
upperneck 31.2969 -22.7269 5.80302
head 12.7063 -10.7889 0.87087
rclavicle 3.89618e-014 -6.83819e-014
rhumerus -38.8823 -29.763 -62.879
rradius 23.7682
rwrist 0.374853
rhand -27.9148 17.6613
rfingers 7.12502
rthumb -1.30358 -12.3144
lclavicle 3.89618e-014 -6.83819e-014
lhumerus -34.0933 11.3376 80.1942
lradius 41.6845
lwrist -2.25001
lhand -12.4599 32.5339
lfingers 7.12502
lthumb 13.6137 62.0688
rfemur -17.5027 7.00166 10.3778
rtibia 38.1673
rfoot -6.94045 -19.3645
rtoes 36.7188
lfemur -13.714 -8.45706 -13.1969
ltibia 29.0604
lfoot -16.5455 -2.03739
ltoes -4.1125
550
root -12.3156 18.1061 12.5273 0.954501 -6.48926 -2.40174
lowerback 8.52032 -1.85811 -0.320702
upperback 1.61494 -2.33951 5.11102
thorax -2.87065 -1.15655 5.76659
lowerneck -2.75449 -15.1225 -9.68321
upperneck 31.6225 -22.6521 5.46877
head 12.7911 -10.7626 0.72762
rclavicle 1.98785e-016 -3.18055e-014
rhumerus -39.0441 -29.385 -63.0134
rradius 23.9467
rwrist -0.128268
rhand -27.8936 17.4616
rfingers 7.12502
rthumb -1.28314 -12.5143
lclavicle 1.98785e-016 -3.18055e-014
lhumerus -34.3677 11.3958 80.039
lradius 41.6302
lwrist -2.13431
lhand -12.5314 32.4705
lfingers 7.12502
lthumb 13.5449 62.0099
rfemur -17.2593 7.27077 10.1995
rtibia 38.2844
rfoot -6.6344 -19.0178
rtoes 33.0553
lfemur -13.6889 -8.54828 -13.1513
ltibia 29.0274
lfoot -16.487 -1.7743
ltoes -4.54315
551
root -12.4094 18.092 12.5042 1.08627 -6.53479 -2.2542
lowerback 8.51421 -1.83856 -0.570785
upperback 1.54452 -2.33461 5.06913
thorax -2.93258 -1.14995 5.86666
lowerneck -2.80866 -15.1179 -9.67474
upperneck 31.6385 -22.64 5.45151
head 12.8035 -10.7559 0.716731
rclavicle -6.36111e-015 9.54166e-015
rhumerus -39.1052 -29.1439 -63.2097
rradius 24.0251
rwrist -0.269722
rhand -28.0044 17.3377
rfingers 7.12502
rthumb -1.3902 -12.6375
lclavicle -6.36111e-015 9.54166e-015
lhumerus -34.4936 11.41 79.8345
lradius 41.4812
lwrist -2.03724
lhand -12.6219 32.5356
lfingers 7.12502
lthumb 13.4576 62.0808
rfemur -17.1033 7.47914 10.1441
rtibia 38.3495
rfoot -7.14017 -18.5911
rtoes 29.0116
lfemur -13.9013 -8.7241 -12.9369
ltibia 29.0715
lfoot -16.4383 -1.52166
ltoes -4.98294
552
root -12.5016 18.0796 12.4816 1.2142 -6.47341 -2.27703
lowerback 8.37501 -1.88209 -0.560994
upperback 1.58715 -2.39764 5.03769
thorax -2.80598 -1.18461 5.82564
lowerneck -2.73094 -15.1149 -9.962
upperneck 31.3086 -22.7515 6.03929
head 12.7885 -10.7841 0.95457
rclavicle 4.37326e-015 1.43125e-014
rhumerus -38.9737 -29.1862 -63.4397
rradius 23.9349
rwrist -0.073287
rhand -28.1278 17.9053
rfingers 7.12502
rthumb -1.50933 -12.0691
lclavicle 4.37326e-015 1.43125e-014
lhumerus -34.4342 11.545 79.5749
lradius 41.3113
lwrist -2.06665
lhand -12.5724 32.6943
lfingers 7.12502
lthumb 13.5053 62.2364
rfemur -16.8547 7.69191 10.2865
rtibia 38.3201
rfoot -7.97922 -18.1594
rtoes 25.4134
lfemur -14.1185 -8.90358 -12.5454
ltibia 29.1728
lfoot -16.4657 -1.30393
ltoes -5.80645
553
root -12.595 18.07 12.4657 1.22254 -6.49806 -2.3045
lowerback 8.31462 -1.88233 -0.538691
upperback 1.63678 -2.40061 4.99599
thorax -2.72325 -1.18856 5.76418
lowerneck -2.66207 -15.1302 -10.5078
upperneck 31.2508 -22.9964 6.88931
head 12.985 -10.8597 1.28274
rclavicle 1.78906e-015 2.62396e-014
rhumerus -38.9518 -29.2874 -63.5519
rradius 23.8576
rwrist 0.0229465
rhand -28.009 18.6485
rfingers 7.12502
rthumb -1.39463 -11.3267
lclavicle 1.78906e-015 2.62396e-014
lhumerus -34.4762 11.6894 79.3227
lradius 41.1734
lwrist -2.20141
lhand -12.378 32.8427
lfingers 7.12502
lthumb 13.6927 62.3722
rfemur -16.4307 7.97116 10.4771
rtibia 38.1686
rfoot -8.72671 -17.8137
rtoes 21.4093
lfemur -14.1762 -9.0107 -12.1791
ltibia 29.3169
lfoot -16.5441 -1.1115
ltoes -6.6313
554
root -12.6903 18.0604 12.4504 1.24098 -6.6383 -2.31094
lowerback 8.28747 -1.85834 -0.570314
upperback 1.63484 -2.37303 4.96291
thorax -2.71314 -1.17476 5.74312
lowerneck -2.65333 -15.091 -10.3557
upperneck 31.1664 -22.8797 6.70636
head 12.8838 -10.8174 1.22387
rclavicle -2.0276e-014 5.725e-014
rhumerus -38.9838 -29.1041 -63.7482
rradius 23.9444
rwrist -0.0124522
rhand -27.913 18.2794
rfingers 7.12502
rthumb -1.30194 -11.6963
lclavicle -2.0276e-014 5.725e-014
lhumerus -34.5939 11.8357 79.0755
lradius 40.9233
lwrist -2.38535
lhand -12.1193 32.8117
lfingers 7.12502
lthumb 13.942 62.3242
rfemur -16.0761 8.22731 10.6839
rtibia 37.9011
rfoot -9.16055 -17.2039
rtoes 16.9256
lfemur -14.2516 -9.12583 -11.8235
ltibia 29.467
lfoot -16.5786 -0.873566
ltoes -7.33144
555
root -12.7891 18.0442 12.4295 1.31019 -6.7551 -2.46413
lowerback 8.24578 -1.8764 -0.525319
upperback 1.65369 -2.39439 4.99106
thorax -2.66881 -1.18699 5.74673
lowerneck -2.66618 -15.0339 -10.7499
upperneck 31.2482 -22.9737 7.31345
head 13.0825 -10.8309 1.46529
rclavicle 5.36719e-015 3.18055e-014
rhumerus -38.8809 -28.7023 -64.1564
rradius 24.1502
rwrist -0.127526
rhand -27.9269 17.4138
rfingers 7.12502
rthumb -1.31534 -12.5619
lclavicle 5.36719e-015 3.18055e-014
lhumerus -34.6879 12.0194 78.8274
lradius 40.6585
lwrist -2.51651
lhand -12.0211 32.7862
lfingers 7.12502
lthumb 14.0367 62.2922
rfemur -15.8429 8.5419 11.0629
rtibia 37.537
rfoot -9.60102 -16.4801
rtoes 14.3733
lfemur -14.4128 -9.16745 -11.2604
ltibia 29.5923
lfoot -16.5803 -0.797907
ltoes -7.64436
556
root -12.8896 18.026 12.4075 1.34778 -6.80277 -2.46796
lowerback 8.28189 -1.89154 -0.615026
upperback 1.63207 -2.42134 4.9724
thorax -2.70562 -1.1989 5.78335
lowerneck -2.66974 -15.033 -10.5346
upperneck 31.1795 -22.9209 7.11987
head 12.9864 -10.8101 1.38148
rclavicle 2.06736e-014 -9.54166e-015
rhumerus -38.8524 -28.2511 -64.5696
rradius 24.3961
rwrist -0.322459
rhand -27.9491 17.3956
rfingers 7.12502
rthumb -1.33674 -12.5799
lclavicle 2.06736e-014 -9.54166e-015
lhumerus -34.9284 12.1576 78.5972
lradius 40.581
lwrist -2.61731
lhand -12.1333 32.8572
lfingers 7.12502
lthumb 13.9286 62.3707
rfemur -15.5993 8.84578 11.2603
rtibia 37.0855
rfoot -10.5511 -15.8668
rtoes 13.6668
lfemur -14.5725 -9.11945 -10.8524
ltibia 29.7073
lfoot -16.6125 -0.908026
ltoes -7.57752
557
root -12.989 18.0156 12.3866 1.35816 -6.87453 -2.2865
lowerback 8.36813 -1.86288 -0.80879
upperback 1.54834 -2.39756 4.88774
thorax -2.8387 -1.18167 5.80894
lowerneck -2.61376 -15.0327 -10.2972
upperneck 31.1685 -22.8381 6.78735
head 12.8761 -10.79 1.25589
rclavicle 3.65764e-014 0
rhumerus -38.9435 -27.8552 -64.8517
rradius 24.5008
rwrist -0.337346
rhand -28.0553 17.9931
rfingers 7.12502
rthumb -1.43928 -11.9818
lclavicle 3.65764e-014 0
lhumerus -35.2603 12.2321 78.3978
lradius 40.5331
lwrist -2.75421
lhand -12.0907 32.9826
lfingers 7.12502
lthumb 13.9695 62.4932
rfemur -15.3538 8.97735 11.2662
rtibia 36.5728
rfoot -11.3914 -15.4617
rtoes 12.0783
lfemur -14.6878 -9.18895 -10.6872
ltibia 29.8257
lfoot -16.5944 -0.786775
ltoes -7.67144
